# 3ds Max Wavefront OBJ Exporter v0.97b - (c)2007 guruware
# File Created: 20.09.2019 19:51:28

mtllib Crystal 2.mtl

#
# object crystal_2
#

v  19.4348 23.7655 36.1734
v  19.4364 23.7655 36.1689
v  19.4319 23.7669 36.1699
v  19.4303 23.7669 36.1744
v  19.4331 23.7655 36.1779
v  19.4376 23.7640 36.1770
v  19.4392 23.7640 36.1725
v  14.9577 20.7258 31.9346
v  19.5380 19.2491 30.9924
v  13.2805 20.7258 36.5428
v  16.1836 19.2491 40.2087
v  20.7639 17.7724 39.2665
v  22.4412 17.7724 34.6584
v  10.2956 4.2352 31.0660
v  13.4221 3.2272 30.4229
v  9.1508 4.2352 34.2114
v  11.1324 3.2272 36.7137
v  14.2589 2.2192 36.0706
v  15.4037 2.2192 32.9252
v  11.2009 0.1454 33.1748
v  11.2040 0.1444 33.1742
v  11.1998 0.1454 33.1779
v  11.2018 0.1444 33.1803
v  11.2048 0.1434 33.1797
v  11.2059 0.1434 33.1766
v  11.2029 0.1444 33.1773
v  12.5787 29.9412 21.3539
v  12.5728 29.9412 21.3528
v  12.5749 29.9430 21.3581
v  12.5807 29.9430 21.3591
v  12.5845 29.9412 21.3549
v  12.5824 29.9394 21.3496
v  12.5766 29.9394 21.3486
v  8.3600 26.1664 27.7434
v  6.2200 24.3325 22.3448
v  14.3575 26.1664 28.8009
v  18.2149 24.3325 24.4599
v  16.0749 22.4986 19.0613
v  10.0774 22.4986 18.0037
v  8.3031 5.6871 33.6325
v  6.8423 4.4353 29.9475
v  12.3968 5.6871 34.3544
v  15.0299 4.4353 31.3912
v  13.5691 3.1835 27.7062
v  9.4753 3.1835 26.9844
v  10.6870 0.6080 32.0705
v  10.6855 0.6068 32.0669
v  10.6910 0.6080 32.0712
v  10.6935 0.6068 32.0683
v  10.6921 0.6056 32.0648
v  10.6881 0.6056 32.0640
v  10.6895 0.6068 32.0676
v  -2.5921 34.8818 36.4526
v  -2.5903 34.8818 36.4593
v  -2.5858 34.8839 36.4545
v  -2.5876 34.8839 36.4479
v  -2.5939 34.8818 36.4460
v  -2.5984 34.8798 36.4507
v  -2.5966 34.8798 36.4574
v  6.1618 30.5188 37.7506
v  1.5519 28.3992 42.6294
v  4.3400 30.5188 30.9516
v  -2.0916 28.3992 29.0313
v  -6.7014 26.2795 33.9101
v  -4.8797 26.2795 40.7092
v  12.3586 6.8486 34.9337
v  9.2120 5.4017 38.2638
v  11.1150 6.8486 30.2927
v  6.7249 5.4017 28.9820
v  3.5783 3.9549 32.3122
v  4.8219 3.9549 36.9531
v  9.5579 0.9781 33.1995
v  9.5548 0.9767 33.2027
v  9.5567 0.9781 33.1949
v  9.5524 0.9767 33.1936
v  9.5493 0.9753 33.1969
v  9.5505 0.9753 33.2014
v  9.5536 0.9767 33.1982
# 78 vertices

vn 0.3268 0.9376 0.1189
vn 0.1077 0.7502 -0.6524
vn -0.4452 0.8807 -0.1620
vn -0.3369 0.7502 0.5690
vn 0.3243 0.4892 0.8096
vn 0.8771 0.3588 0.3192
vn 0.7688 0.4892 -0.4118
vn -0.1696 0.0996 -0.9805
vn -0.9040 0.2729 -0.3290
vn -0.7601 0.0996 0.6421
vn 0.1182 -0.2471 0.9618
vn 0.8526 -0.4204 0.3103
vn 0.7087 -0.2471 -0.6608
vn -0.3243 -0.4892 -0.8096
vn -0.8771 -0.3588 -0.3192
vn -0.7688 -0.4892 0.4118
vn -0.1077 -0.7502 0.6524
vn 0.4452 -0.8807 0.1620
vn 0.3369 -0.7502 -0.5690
vn -0.3268 -0.9376 -0.1189
vn 0.0603 0.9376 -0.3424
vn -0.6612 0.7502 0.0073
vn -0.0823 0.8807 0.4666
vn 0.6188 0.7502 0.2330
vn 0.7410 0.4892 -0.4599
vn 0.1621 0.3588 -0.9192
vn -0.5390 0.4892 -0.6856
vn -0.9361 0.0996 0.3373
vn -0.1671 0.2729 0.9474
vn 0.7643 0.0996 0.6371
vn 0.9266 -0.2471 -0.2834
vn 0.1576 -0.4204 -0.8936
vn -0.7738 -0.2471 -0.5832
vn -0.7410 -0.4892 0.4599
vn -0.1621 -0.3588 0.9192
vn 0.5390 -0.4892 0.6856
vn 0.6612 -0.7502 -0.0073
vn 0.0823 -0.8807 -0.4666
vn -0.6188 -0.7502 -0.2330
vn -0.0604 -0.9376 0.3424
vn -0.3360 0.9375 0.0902
vn -0.3359 0.9376 0.0898
vn -0.3356 0.9377 0.0901
vn 0.2860 0.7502 0.5962
vn 0.4576 0.8807 -0.1226
vn -0.0504 0.7502 -0.6593
vn -0.7300 0.4892 -0.4772
vn -0.9016 0.3588 0.2416
vn -0.3936 0.4892 0.7783
vn 0.7013 0.0996 0.7059
vn 0.9293 0.2729 -0.2490
vn 0.2544 0.0996 -0.9620
vn -0.6485 -0.2471 -0.7200
vn -0.8764 -0.4204 0.2348
vn -0.2016 -0.2471 0.9478
vn 0.7300 -0.4892 0.4772
vn 0.9016 -0.3588 -0.2416
vn 0.3936 -0.4892 -0.7783
vn -0.2860 -0.7502 -0.5962
vn -0.4576 -0.8807 0.1226
vn 0.0504 -0.7502 0.6593
vn 0.3359 -0.9376 -0.0900
# 62 vertex normals

vt 0.6599 0.9290 0.0000
vt 0.6600 0.9290 0.0000
vt 0.6600 0.9291 0.0000
vt 0.6599 0.9291 0.0000
vt 0.6598 0.9291 0.0000
vt 0.6733 0.8647 0.0000
vt 0.6108 0.8853 0.0000
vt 0.1955 0.8382 0.0000
vt 0.2563 0.8389 0.0000
vt 0.2564 0.8389 0.0000
vt 0.2200 0.8877 0.0000
vt 0.7090 0.9728 0.0000
vt 0.7223 0.9084 0.0000
vt 0.6465 0.9934 0.0000
vt 0.5309 0.6658 0.0000
vt 0.5811 0.6313 0.0000
vt 0.5811 0.6314 0.0000
vt 0.5794 0.6922 0.0000
vt 0.5975 0.9497 0.0000
vt 0.4906 0.4190 0.0000
vt 0.6507 0.5406 0.0000
vt 0.6176 0.5778 0.0000
vt 0.4680 0.4444 0.0000
vt 0.0268 0.9314 0.0000
vt 0.0436 0.9652 0.0000
vt 0.7122 0.6429 0.0000
vt 0.6443 0.8315 0.0000
vt 0.5975 0.8146 0.0000
vt 0.6802 0.6313 0.0000
vt 0.7442 0.6544 0.0000
vt 0.6912 0.8483 0.0000
vt 0.4465 0.8390 0.0000
vt 0.4796 0.8571 0.0000
vt 0.5844 0.6150 0.0000
vt 0.4454 0.4697 0.0000
vt 0.8055 0.6708 0.0000
vt 0.8288 0.7090 0.0000
vt 0.7840 0.7102 0.0000
vt 0.8054 0.6708 0.0000
vt 0.0020 0.9648 0.0000
vt 0.8055 0.6707 0.0000
vt 0.8269 0.6313 0.0000
vt 0.8503 0.6696 0.0000
vt 0.8054 0.6707 0.0000
vt 0.7820 0.6325 0.0000
vt 0.4454 0.8806 0.0000
vt 0.7606 0.6719 0.0000
vt 0.4976 0.8970 0.0000
vt 0.4975 0.8970 0.0000
vt 0.4975 0.8969 0.0000
vt 0.8674 0.0020 0.0000
vt 0.9540 0.0614 0.0000
vt 0.9540 0.0615 0.0000
vt 0.8574 0.0667 0.0000
vt 0.5121 0.9913 0.0000
vt 0.5643 0.9511 0.0000
vt 0.4454 0.9727 0.0000
vt 0.5088 0.3527 0.0000
vt 0.6006 0.3573 0.0000
vt 0.5123 0.4027 0.0000
vt 0.5344 0.2873 0.0000
vt 0.6006 0.3572 0.0000
vt 0.9540 0.0616 0.0000
vt 0.8761 0.1316 0.0000
vt 0.6326 0.0419 0.0000
vt 0.6257 0.0860 0.0000
vt 0.2044 0.6446 0.0000
vt 0.0540 0.8219 0.0000
vt 0.0020 0.7780 0.0000
vt 0.1688 0.6147 0.0000
vt 0.3386 0.6608 0.0000
vt 0.3667 0.4190 0.0000
vt 0.4290 0.4396 0.0000
vt 0.3811 0.6749 0.0000
vt 0.2955 0.6658 0.0000
vt 0.3036 0.4263 0.0000
vt 0.3130 0.2321 0.0000
vt 0.2955 0.2768 0.0000
vt 0.6385 0.1303 0.0000
vt 0.2208 0.5831 0.0000
vt 0.1552 0.5846 0.0000
vt 0.3327 0.7247 0.0000
vt 0.3326 0.7247 0.0000
vt 0.6562 0.1480 0.0000
vt 0.6686 0.2120 0.0000
vt 0.6257 0.1981 0.0000
vt 0.6563 0.1480 0.0000
vt 0.7072 0.1846 0.0000
vt 0.6562 0.1479 0.0000
vt 0.4107 0.7958 0.0000
vt 0.4106 0.7957 0.0000
vt 0.4107 0.7957 0.0000
vt 0.4108 0.7957 0.0000
vt 0.4108 0.7958 0.0000
vt 0.3170 0.8685 0.0000
vt 0.3868 0.9022 0.0000
vt 0.2955 0.7879 0.0000
vt 0.3437 0.7411 0.0000
vt 0.1716 0.3777 0.0000
vt 0.2740 0.3134 0.0000
vt 0.2741 0.3135 0.0000
vt 0.2378 0.4301 0.0000
vt 0.1556 0.3060 0.0000
vt 0.3940 0.2036 0.0000
vt 0.2955 0.2158 0.0000
vt 0.2955 0.2157 0.0000
vt 0.3518 0.1369 0.0000
vt 0.0515 0.2201 0.0000
vt 0.2284 0.0213 0.0000
vt 0.2791 0.0909 0.0000
vt 0.0861 0.2676 0.0000
vt 0.0020 0.2069 0.0000
vt 0.1559 0.0020 0.0000
vt 0.7289 0.4190 0.0000
vt 0.9980 0.4266 0.0000
vt 0.9928 0.5038 0.0000
vt 0.7254 0.4717 0.0000
vt 0.0020 0.5310 0.0000
vt 0.0472 0.5667 0.0000
vt 0.6954 0.2528 0.0000
vt 0.9124 0.2686 0.0000
vt 0.9198 0.3588 0.0000
vt 0.7005 0.3143 0.0000
vt 0.6094 0.0475 0.0000
vt 0.5806 0.0020 0.0000
vt 0.0040 0.2896 0.0000
vt 0.0039 0.2895 0.0000
vt 0.6671 0.4432 0.0000
vt 0.6671 0.4433 0.0000
vt 0.6171 0.2870 0.0000
vt 0.6603 0.3552 0.0000
vt 0.6170 0.2870 0.0000
vt 0.6171 0.2869 0.0000
vt 0.6170 0.2869 0.0000
vt 0.6501 0.2321 0.0000
# 135 texture coords

g crystal_2
usemtl Material__3
s off
f 1/1/1 2/1/1 3/1/1 
f 1/1/1 3/1/1 4/2/1 
f 1/1/1 4/2/1 5/3/1 
f 1/1/1 5/3/1 6/4/1 
f 1/1/1 6/4/1 7/5/1 
f 1/1/1 7/5/1 2/1/1 
f 8/6/2 3/1/2 2/1/2 9/7/2 
f 10/8/3 4/9/3 3/10/3 8/11/3 
f 11/12/4 5/3/4 4/2/4 10/13/4 
f 12/14/5 6/4/5 5/3/5 11/12/5 
f 13/15/6 7/16/6 6/17/6 12/18/6 
f 9/7/7 2/1/7 7/5/7 13/19/7 
f 14/20/8 8/21/8 9/22/8 15/23/8 
f 16/24/9 10/8/9 8/11/9 14/25/9 
f 17/26/10 11/27/10 10/28/10 16/29/10 
f 18/30/11 12/31/11 11/27/11 17/26/11 
f 19/32/12 13/15/12 12/18/12 18/33/12 
f 15/23/13 9/22/13 13/34/13 19/35/13 
f 20/36/14 14/37/14 15/38/14 21/39/14 
f 22/40/15 16/24/15 14/25/15 20/40/15 
f 23/41/16 17/42/16 16/43/16 22/41/16 
f 24/44/17 18/45/17 17/42/17 23/41/17 
f 25/46/18 19/32/18 18/33/18 24/46/18 
f 21/39/19 15/38/19 19/47/19 25/44/19 
f 21/39/20 26/44/20 20/36/20 
f 20/36/20 26/44/20 22/41/20 
f 22/41/20 26/44/20 23/41/20 
f 23/41/20 26/44/20 24/44/20 
f 24/44/20 26/44/20 25/44/20 
f 25/44/20 26/44/20 21/39/20 
f 27/48/21 28/48/21 29/48/21 
f 27/48/21 29/48/21 30/48/21 
f 27/48/21 30/48/21 31/49/21 
f 27/48/21 31/49/21 32/49/21 
f 27/48/21 32/49/21 33/50/21 
f 27/48/21 33/50/21 28/48/21 
f 34/51/22 29/52/22 28/53/22 35/54/22 
f 36/55/23 30/48/23 29/48/23 34/56/23 
f 37/57/24 31/49/24 30/48/24 36/55/24 
f 38/58/25 32/59/25 31/59/25 37/60/25 
f 39/61/26 33/62/26 32/59/26 38/58/26 
f 35/54/27 28/53/27 33/63/27 39/64/27 
f 40/65/28 34/51/28 35/54/28 41/66/28 
f 42/67/29 36/68/29 34/69/29 40/70/29 
f 43/71/30 37/72/30 36/73/30 42/74/30 
f 44/75/31 38/76/31 37/72/31 43/71/31 
f 45/77/32 39/61/32 38/58/32 44/78/32 
f 41/66/33 35/54/33 39/64/33 45/79/33 
f 46/80/34 40/70/34 41/81/34 47/80/34 
f 48/80/35 42/67/35 40/70/35 46/80/35 
f 49/82/36 43/71/36 42/74/36 48/82/36 
f 50/83/37 44/75/37 43/71/37 49/82/37 
f 51/84/38 45/85/38 44/86/38 50/84/38 
f 47/87/39 41/88/39 45/85/39 51/84/39 
f 47/87/40 52/84/40 46/87/40 
f 46/87/40 52/84/40 48/89/40 
f 48/89/40 52/84/40 49/84/40 
f 49/84/40 52/84/40 50/84/40 
f 50/84/40 52/84/40 51/84/40 
f 51/84/40 52/84/40 47/87/40 
f 53/90/41 54/90/41 55/90/41 
f 53/90/42 55/90/42 56/91/42 
f 53/90/43 56/91/43 57/92/43 
f 53/90/41 57/92/41 58/93/41 
f 53/90/42 58/93/42 59/94/42 
f 53/90/43 59/94/43 54/90/43 
f 60/95/44 55/90/44 54/90/44 61/96/44 
f 62/97/45 56/91/45 55/90/45 60/95/45 
f 63/98/46 57/92/46 56/91/46 62/97/46 
f 64/99/47 58/100/47 57/101/47 63/102/47 
f 65/103/48 59/100/48 58/100/48 64/99/48 
f 61/104/49 54/105/49 59/106/49 65/107/49 
f 66/108/50 60/109/50 61/110/50 67/111/50 
f 68/112/51 62/113/51 60/109/51 66/108/51 
f 69/114/52 63/115/52 62/116/52 68/117/52 
f 70/118/53 64/99/53 63/102/53 69/119/53 
f 71/120/54 65/121/54 64/122/54 70/123/54 
f 67/124/55 61/104/55 65/107/55 71/125/55 
f 72/126/56 66/108/56 67/111/56 73/126/56 
f 74/127/57 68/112/57 66/108/57 72/126/57 
f 75/128/58 69/114/58 68/117/58 74/129/58 
f 76/130/59 70/123/59 69/131/59 75/132/59 
f 77/133/60 71/120/60 70/123/60 76/130/60 
f 73/134/61 67/135/61 71/120/61 77/133/61 
f 73/134/62 78/134/62 72/134/62 
f 72/134/62 78/134/62 74/132/62 
f 74/132/62 78/134/62 75/132/62 
f 75/132/62 78/134/62 76/130/62 
f 76/130/62 78/134/62 77/133/62 
f 77/133/62 78/134/62 73/134/62 
# 54 polygons - 36 triangles

