# 3ds Max Wavefront OBJ Exporter v0.97b - (c)2007 guruware
# File Created: 20.09.2019 19:55:35

mtllib Crystal 1.mtl

#
# object Crystal_1
#

v  -9.8862 49.5977 17.1234
v  -9.8776 49.5977 17.1284
v  -9.8778 49.6008 17.1189
v  -9.8865 49.6008 17.1139
v  -9.8949 49.5977 17.1184
v  -9.8946 49.5947 17.1280
v  -9.8859 49.5947 17.1330
v  0.4536 43.2508 9.4540
v  0.7303 40.1672 19.2144
v  -8.4142 43.2508 4.3342
v  -17.0053 40.1672 8.9747
v  -16.7286 37.0837 18.7352
v  -7.8608 37.0837 23.8550
v  3.9303 8.8171 0.1820
v  4.1191 6.7123 6.8443
v  -2.1228 8.8171 -3.3127
v  -7.9869 6.7123 -0.1451
v  -7.7981 4.6075 6.5172
v  -1.7450 4.6075 10.0119
v  -0.7345 0.2772 1.2790
v  -0.7343 0.2751 1.2855
v  -0.7404 0.2772 1.2756
v  -0.7462 0.2751 1.2787
v  -0.7460 0.2731 1.2852
v  -0.7401 0.2731 1.2886
v  -0.7402 0.2751 1.2821
v  3.1803 19.7374 -10.8696
v  3.1760 19.7380 -10.8701
v  3.1781 19.7398 -10.8666
v  3.1825 19.7391 -10.8661
v  3.1847 19.7368 -10.8691
v  3.1826 19.7351 -10.8726
v  3.1782 19.7357 -10.8731
v  0.1088 18.4208 -5.4645
v  -2.0697 16.6647 -9.0314
v  4.5702 17.7715 -4.9886
v  6.8532 15.3660 -8.0796
v  4.6748 13.6099 -11.6465
v  0.2133 14.2592 -12.1224
v  -1.9640 4.4532 1.7638
v  -3.4510 3.2544 -0.6709
v  1.0813 4.0099 2.0887
v  2.6397 2.3680 -0.0212
v  1.1527 1.1693 -2.4560
v  -1.8927 1.6125 -2.7808
v  -0.9454 0.2722 1.2356
v  -0.9469 0.2710 1.2332
v  -0.9425 0.2718 1.2359
v  -0.9410 0.2702 1.2338
v  -0.9424 0.2690 1.2314
v  -0.9454 0.2694 1.2311
v  -0.9439 0.2706 1.2335
v  11.6018 29.4405 -0.9222
v  11.5993 29.4410 -0.9277
v  11.5963 29.4428 -0.9228
v  11.5988 29.4424 -0.9174
v  11.6044 29.4401 -0.9168
v  11.6074 29.4383 -0.9217
v  11.6049 29.4387 -0.9271
v  3.5983 26.2138 -0.8645
v  6.6869 24.3368 -5.8484
v  6.1835 25.7743 4.7055
v  11.8573 23.4578 5.2917
v  14.9459 21.5808 0.3078
v  12.3607 22.0203 -5.2622
v  -2.8656 5.8137 1.6057
v  -0.7574 4.5325 -1.7962
v  -1.1010 5.5137 5.4078
v  2.7719 3.9325 5.8079
v  4.8801 2.6513 2.4059
v  3.1155 2.9513 -1.3961
v  -0.5868 0.4503 2.4449
v  -0.5847 0.4490 2.4416
v  -0.5850 0.4500 2.4487
v  -0.5813 0.4485 2.4491
v  -0.5792 0.4472 2.4457
v  -0.5809 0.4475 2.4420
v  -0.5830 0.4488 2.4453
v  -12.4176 39.6746 -9.0121
v  -12.4233 39.6746 -9.0064
v  -12.4159 39.6770 -9.0047
v  -12.4102 39.6770 -9.0103
v  -12.4120 39.6746 -9.0177
v  -12.4194 39.6722 -9.0195
v  -12.4251 39.6722 -9.0139
v  -8.6367 34.6033 0.5540
v  -16.2269 32.1395 -1.2509
v  -2.8515 34.6033 -5.2312
v  -4.6564 32.1395 -12.8213
v  -12.2465 29.6758 -14.6262
v  -18.0318 29.6758 -8.8410
v  -2.1998 7.0904 5.1547
v  -7.3807 5.4087 3.9227
v  1.7492 7.0904 1.2058
v  0.5172 5.4087 -3.9751
v  -4.6638 3.7270 -5.2071
v  -8.6127 3.7270 -1.2582
v  -2.0818 0.2670 1.3276
v  -2.0868 0.2654 1.3264
v  -2.0779 0.2670 1.3238
v  -2.0791 0.2654 1.3187
v  -2.0842 0.2637 1.3175
v  -2.0880 0.2637 1.3214
v  -2.0830 0.2654 1.3226
# 104 vertices

vn -0.1739 0.9376 0.3011
vn 0.6238 0.7502 0.2193
vn 0.2369 0.8807 -0.4103
vn -0.5018 0.7502 -0.4306
vn -0.8536 0.4892 0.1788
vn -0.4667 0.3588 0.8084
vn 0.2720 0.4892 0.8286
vn 0.9950 0.0996 0.0033
vn 0.4810 0.2729 -0.8332
vn -0.5003 0.0996 -0.8601
vn -0.9677 -0.2471 -0.0506
vn -0.4537 -0.4204 0.7858
vn 0.5277 -0.2471 0.8127
vn 0.8536 -0.4892 -0.1788
vn 0.4667 -0.3588 -0.8084
vn -0.2720 -0.4892 -0.8286
vn -0.6238 -0.7502 -0.2193
vn -0.2369 -0.8807 0.4103
vn 0.5018 -0.7502 0.4306
vn 0.1739 -0.9376 -0.3011
vn 0.1771 0.8360 -0.5194
vn 0.1768 0.8359 -0.5196
vn 0.1774 0.8356 -0.5199
vn 0.1774 0.8358 -0.5195
vn 0.1770 0.8358 -0.5197
vn 0.1771 0.8357 -0.5198
vn -0.5275 0.8444 -0.0936
vn 0.1071 0.9502 0.2928
vn 0.7516 0.6582 0.0429
vn 0.7616 0.2605 -0.5934
vn 0.1270 0.1547 -0.9798
vn -0.5175 0.4467 -0.7298
vn -0.8702 0.3221 0.3729
vn -0.0272 0.4626 0.8861
vn 0.8291 0.0748 0.5541
vn 0.8423 -0.4536 -0.2911
vn -0.0007 -0.5941 -0.8044
vn -0.8569 -0.2062 -0.4724
vn -0.7616 -0.2605 0.5934
vn -0.1270 -0.1547 0.9798
vn 0.5175 -0.4467 0.7298
vn 0.5275 -0.8444 0.0936
vn -0.1071 -0.9502 -0.2928
vn -0.7516 -0.6582 -0.0429
vn -0.1772 -0.8358 0.5197
vn -0.1771 -0.8358 0.5197
vn -0.1771 -0.8358 0.5196
vn -0.1770 -0.8358 0.5197
vn 0.3853 0.9166 -0.1067
vn 0.3853 0.9167 -0.1064
vn 0.3850 0.9167 -0.1066
vn -0.3266 0.7998 -0.5036
vn -0.3620 0.9010 0.2391
vn 0.2192 0.7070 0.6723
vn 0.8359 0.4119 0.3629
vn 0.8713 0.3108 -0.3799
vn 0.2901 0.5047 -0.8131
vn -0.8024 0.1856 -0.5672
vn -0.8495 0.3200 0.4195
vn -0.0774 0.0623 0.9951
vn 0.7418 -0.3297 0.5839
vn 0.7889 -0.4641 -0.4028
vn 0.0168 -0.2065 -0.9783
vn -0.8359 -0.4119 -0.3629
vn -0.8713 -0.3108 0.3799
vn -0.2901 -0.5047 0.8131
vn 0.3266 -0.7998 0.5036
vn 0.3620 -0.9010 -0.2391
vn -0.2192 -0.7070 -0.6723
vn -0.3852 -0.9167 0.1065
vn -0.3852 -0.9167 0.1064
vn -0.3853 -0.9166 0.1064
vn -0.3853 -0.9166 0.1065
vn -0.2456 0.9377 -0.2458
vn -0.2460 0.9376 -0.2457
vn -0.2459 0.9375 -0.2462
vn -0.3733 0.7502 0.5458
vn 0.3350 0.8807 0.3350
vn 0.5458 0.7502 -0.3733
vn 0.0483 0.4892 -0.8708
vn -0.6600 0.3588 -0.6600
vn -0.8708 0.4892 0.0483
vn -0.2607 0.0996 0.9603
vn 0.6803 0.2729 0.6803
vn 0.9603 0.0996 -0.2607
vn 0.2993 -0.2471 -0.9216
vn -0.6416 -0.4204 -0.6416
vn -0.9216 -0.2471 0.2993
vn -0.0483 -0.4892 0.8708
vn 0.6600 -0.3588 0.6600
vn 0.8708 -0.4892 -0.0483
vn 0.3733 -0.7502 -0.5458
vn -0.3350 -0.8807 -0.3350
vn -0.5458 -0.7502 0.3733
vn 0.2458 -0.9376 0.2459
# 95 vertex normals

vt 0.1025 0.7268 0.0000
vt 0.1026 0.7268 0.0000
vt 0.1025 0.7269 0.0000
vt 0.1024 0.7269 0.0000
vt 0.1024 0.7268 0.0000
vt 0.1527 0.8139 0.0000
vt 0.2030 0.7268 0.0000
vt 0.3393 0.3213 0.0000
vt 0.3977 0.3938 0.0000
vt 0.3976 0.3938 0.0000
vt 0.3047 0.3983 0.0000
vt 0.0020 0.7268 0.0000
vt 0.0522 0.8139 0.0000
vt 0.0522 0.6398 0.0000
vt 0.2977 0.0020 0.0000
vt 0.3907 0.0030 0.0000
vt 0.3908 0.0031 0.0000
vt 0.3351 0.0777 0.0000
vt 0.1527 0.6398 0.0000
vt 0.6194 0.5195 0.0000
vt 0.3158 0.5671 0.0000
vt 0.3099 0.4912 0.0000
vt 0.6154 0.4677 0.0000
vt 0.0655 0.2130 0.0000
vt 0.0418 0.2656 0.0000
vt 0.4137 0.0536 0.0000
vt 0.7180 0.0890 0.0000
vt 0.7092 0.1646 0.0000
vt 0.4077 0.1052 0.0000
vt 0.4197 0.0020 0.0000
vt 0.7268 0.0134 0.0000
vt 0.0400 0.1445 0.0000
vt 0.0655 0.1961 0.0000
vt 0.3041 0.4152 0.0000
vt 0.6114 0.4159 0.0000
vt 0.5544 0.7886 0.0000
vt 0.6222 0.7982 0.0000
vt 0.5799 0.8522 0.0000
vt 0.5543 0.7887 0.0000
vt 0.0020 0.2161 0.0000
vt 0.5543 0.7885 0.0000
vt 0.5287 0.7250 0.0000
vt 0.5966 0.7346 0.0000
vt 0.5543 0.7886 0.0000
vt 0.5542 0.7886 0.0000
vt 0.4864 0.7790 0.0000
vt 0.0020 0.1954 0.0000
vt 0.5120 0.8426 0.0000
vt 0.2703 0.6811 0.0000
vt 0.2703 0.6812 0.0000
vt 0.9398 0.3195 0.0000
vt 0.9394 0.3767 0.0000
vt 0.9394 0.3768 0.0000
vt 0.9064 0.3310 0.0000
vt 0.9772 0.3330 0.0000
vt 0.9395 0.3768 0.0000
vt 0.6705 0.8674 0.0000
vt 0.6396 0.8869 0.0000
vt 0.6395 0.8869 0.0000
vt 0.6391 0.8470 0.0000
vt 0.2199 0.6667 0.0000
vt 0.2251 0.7026 0.0000
vt 0.2433 0.6398 0.0000
vt 0.2777 0.9539 0.0000
vt 0.2845 0.9966 0.0000
vt 0.2456 0.9731 0.0000
vt 0.3445 0.9439 0.0000
vt 0.4458 0.9138 0.0000
vt 0.4412 0.9565 0.0000
vt 0.3413 0.9730 0.0000
vt 0.9819 0.2222 0.0000
vt 0.9564 0.2130 0.0000
vt 0.7368 0.7539 0.0000
vt 0.7154 0.7400 0.0000
vt 0.8864 0.6736 0.0000
vt 0.9962 0.6140 0.0000
vt 0.9980 0.6498 0.0000
vt 0.8876 0.6981 0.0000
vt 0.8680 0.6531 0.0000
vt 0.9693 0.5840 0.0000
vt 0.2085 0.8449 0.0000
vt 0.1865 0.8580 0.0000
vt 0.3042 0.9570 0.0000
vt 0.3042 0.9571 0.0000
vt 0.3041 0.9570 0.0000
vt 0.3248 0.9228 0.0000
vt 0.7426 0.7250 0.0000
vt 0.8497 0.6887 0.0000
vt 0.1879 0.8308 0.0000
vt 0.3041 0.9571 0.0000
vt 0.6999 0.9777 0.0000
vt 0.6999 0.9776 0.0000
vt 0.6391 0.9343 0.0000
vt 0.6407 0.9770 0.0000
vt 0.6834 0.9038 0.0000
vt 0.7292 0.9160 0.0000
vt 0.7709 0.3557 0.0000
vt 0.7098 0.3784 0.0000
vt 0.7097 0.3783 0.0000
vt 0.7365 0.3182 0.0000
vt 0.4060 0.8525 0.0000
vt 0.4694 0.8960 0.0000
vt 0.3941 0.8969 0.0000
vt 0.4498 0.8207 0.0000
vt 0.4695 0.8959 0.0000
vt 0.0422 0.8475 0.0000
vt 0.1696 0.9611 0.0000
vt 0.1346 0.9965 0.0000
vt 0.0183 0.8716 0.0000
vt 0.7870 0.1544 0.0000
vt 0.9080 0.0330 0.0000
vt 0.9219 0.0781 0.0000
vt 0.7965 0.1852 0.0000
vt 0.7555 0.1333 0.0000
vt 0.8619 0.0020 0.0000
vt 0.8895 0.2387 0.0000
vt 0.8660 0.2130 0.0000
vt 0.6888 0.6116 0.0000
vt 0.8328 0.6150 0.0000
vt 0.8203 0.6708 0.0000
vt 0.6803 0.6497 0.0000
vt 0.3340 0.7250 0.0000
vt 0.3041 0.7467 0.0000
vt 0.0020 0.8308 0.0000
vt 0.7437 0.1865 0.0000
vt 0.7437 0.1866 0.0000
vt 0.6346 0.6205 0.0000
vt 0.6511 0.6602 0.0000
vt 0.6682 0.5840 0.0000
vt 0.6345 0.6205 0.0000
vt 0.4865 0.9592 0.0000
vt 0.4864 0.9591 0.0000
vt 0.4865 0.9591 0.0000
vt 0.4864 0.9592 0.0000
vt 0.5542 0.8939 0.0000
vt 0.4913 0.8691 0.0000
vt 0.5720 0.9562 0.0000
vt 0.5234 0.6496 0.0000
vt 0.6176 0.6454 0.0000
vt 0.5385 0.7081 0.0000
vt 0.5381 0.5840 0.0000
vt 0.6176 0.6453 0.0000
vt 0.6276 0.3287 0.0000
vt 0.6928 0.3904 0.0000
vt 0.6927 0.3905 0.0000
vt 0.5967 0.3894 0.0000
vt 0.6687 0.2948 0.0000
vt 0.6890 0.4528 0.0000
vt 0.9216 0.4152 0.0000
vt 0.9387 0.4803 0.0000
vt 0.7007 0.4973 0.0000
vt 0.2399 0.4585 0.0000
vt 0.0312 0.5865 0.0000
vt 0.0020 0.5231 0.0000
vt 0.2199 0.4152 0.0000
vt 0.2677 0.4834 0.0000
vt 0.0719 0.6229 0.0000
vt 0.3141 0.5923 0.0000
vt 0.3041 0.6370 0.0000
vt 0.4357 0.2130 0.0000
vt 0.4146 0.2544 0.0000
vt 0.9258 0.5394 0.0000
vt 0.6919 0.5376 0.0000
vt 0.6363 0.4968 0.0000
vt 0.2872 0.4171 0.0000
vt 0.2872 0.4172 0.0000
vt 0.7795 0.7845 0.0000
vt 0.8035 0.7250 0.0000
vt 0.8352 0.7585 0.0000
vt 0.7794 0.7845 0.0000
vt 0.7595 0.7296 0.0000
vt 0.6363 0.4969 0.0000
vt 0.7795 0.7846 0.0000
# 173 texture coords

g Crystal_1
usemtl Material__5
s off
f 1/1/1 2/2/1 3/3/1 
f 1/1/1 3/3/1 4/4/1 
f 1/1/1 4/4/1 5/5/1 
f 1/1/1 5/5/1 6/5/1 
f 1/1/1 6/5/1 7/1/1 
f 1/1/1 7/1/1 2/2/1 
f 8/6/2 3/3/2 2/2/2 9/7/2 
f 10/8/3 4/9/3 3/10/3 8/11/3 
f 11/12/4 5/5/4 4/4/4 10/13/4 
f 12/14/5 6/5/5 5/5/5 11/12/5 
f 13/15/6 7/16/6 6/17/6 12/18/6 
f 9/7/7 2/2/7 7/1/7 13/19/7 
f 14/20/8 8/21/8 9/22/8 15/23/8 
f 16/24/9 10/8/9 8/11/9 14/25/9 
f 17/26/10 11/27/10 10/28/10 16/29/10 
f 18/30/11 12/31/11 11/27/11 17/26/11 
f 19/32/12 13/15/12 12/18/12 18/33/12 
f 15/23/13 9/22/13 13/34/13 19/35/13 
f 20/36/14 14/37/14 15/38/14 21/39/14 
f 22/40/15 16/24/15 14/25/15 20/40/15 
f 23/41/16 17/42/16 16/43/16 22/44/16 
f 24/45/17 18/46/17 17/42/17 23/41/17 
f 25/47/18 19/32/18 18/33/18 24/47/18 
f 21/39/19 15/38/19 19/48/19 25/39/19 
f 21/39/20 26/44/20 20/36/20 
f 20/36/20 26/44/20 22/44/20 
f 22/44/20 26/44/20 23/41/20 
f 23/41/20 26/44/20 24/45/20 
f 24/45/20 26/44/20 25/39/20 
f 25/39/20 26/44/20 21/39/20 
f 27/49/21 28/49/21 29/49/21 
f 27/49/22 29/49/22 30/50/22 
f 27/49/23 30/50/23 31/49/23 
f 27/49/24 31/49/24 32/49/24 
f 27/49/25 32/49/25 33/49/25 
f 27/49/26 33/49/26 28/49/26 
f 34/51/27 29/52/27 28/53/27 35/54/27 
f 36/55/28 30/56/28 29/52/28 34/51/28 
f 37/57/29 31/58/29 30/59/29 36/60/29 
f 38/61/30 32/49/30 31/49/30 37/62/30 
f 39/63/31 33/49/31 32/49/31 38/61/31 
f 35/64/32 28/65/32 33/65/32 39/66/32 
f 40/67/33 34/68/33 35/69/33 41/70/33 
f 42/71/34 36/55/34 34/51/34 40/72/34 
f 43/73/35 37/57/35 36/60/35 42/74/35 
f 44/75/36 38/76/36 37/77/36 43/78/36 
f 45/79/37 39/80/37 38/76/37 44/75/37 
f 41/81/38 35/64/38 39/66/38 45/82/38 
f 46/83/39 40/67/39 41/70/39 47/84/39 
f 48/85/40 42/86/40 40/67/40 46/83/40 
f 49/87/41 43/73/41 42/74/41 48/87/41 
f 50/88/42 44/75/42 43/78/42 49/88/42 
f 51/88/43 45/79/43 44/75/43 50/88/43 
f 47/89/44 41/81/44 45/82/44 51/89/44 
f 47/84/45 52/90/45 46/83/45 
f 46/83/46 52/90/46 48/85/46 
f 48/85/46 52/90/46 49/85/46 
f 49/85/47 52/90/47 50/90/47 
f 50/90/48 52/90/48 51/90/48 
f 51/90/45 52/90/45 47/84/45 
f 53/91/49 54/91/49 55/91/49 
f 53/91/50 55/91/50 56/92/50 
f 53/91/51 56/92/51 57/92/51 
f 53/91/49 57/92/49 58/91/49 
f 53/91/50 58/91/50 59/91/50 
f 53/91/51 59/91/51 54/91/51 
f 60/93/52 55/91/52 54/91/52 61/94/52 
f 62/95/53 56/92/53 55/91/53 60/93/53 
f 63/96/54 57/92/54 56/92/54 62/95/54 
f 64/97/55 58/98/55 57/99/55 63/100/55 
f 65/101/56 59/102/56 58/102/56 64/103/56 
f 61/104/57 54/105/57 59/102/57 65/101/57 
f 66/106/58 60/107/58 61/108/58 67/109/58 
f 68/110/59 62/111/59 60/112/59 66/113/59 
f 69/114/60 63/115/60 62/111/60 68/110/60 
f 70/116/61 64/97/61 63/100/61 69/117/61 
f 71/118/62 65/119/62 64/120/62 70/121/62 
f 67/122/63 61/104/63 65/101/63 71/123/63 
f 72/124/64 66/106/64 67/109/64 73/124/64 
f 74/125/65 68/110/65 66/113/65 72/126/65 
f 75/125/66 69/114/66 68/110/66 74/125/66 
f 76/127/67 70/121/67 69/128/67 75/127/67 
f 77/127/68 71/118/68 70/121/68 76/127/68 
f 73/127/69 67/129/69 71/118/69 77/127/69 
f 73/127/70 78/127/70 72/130/70 
f 72/130/71 78/127/71 74/130/71 
f 74/130/71 78/127/71 75/127/71 
f 75/127/72 78/127/72 76/127/72 
f 76/127/73 78/127/73 77/127/73 
f 77/127/73 78/127/73 73/127/73 
f 79/131/74 80/132/74 81/133/74 
f 79/131/75 81/133/75 82/131/75 
f 79/131/76 82/131/76 83/131/76 
f 79/131/74 83/131/74 84/134/74 
f 79/131/75 84/134/75 85/132/75 
f 79/131/76 85/132/76 80/132/76 
f 86/135/77 81/133/77 80/132/77 87/136/77 
f 88/137/78 82/131/78 81/133/78 86/135/78 
f 89/138/79 83/139/79 82/139/79 88/140/79 
f 90/141/80 84/142/80 83/139/80 89/138/80 
f 91/143/81 85/144/81 84/145/81 90/146/81 
f 87/147/82 80/144/82 85/144/82 91/143/82 
f 92/148/83 86/149/83 87/150/83 93/151/83 
f 94/152/84 88/153/84 86/154/84 92/155/84 
f 95/156/85 89/157/85 88/153/85 94/152/85 
f 96/158/86 90/141/86 89/138/86 95/159/86 
f 97/160/87 91/143/87 90/146/87 96/161/87 
f 93/151/88 87/150/88 91/162/88 97/163/88 
f 98/164/89 92/148/89 93/151/89 99/164/89 
f 100/165/90 94/152/90 92/155/90 98/165/90 
f 101/166/91 95/156/91 94/152/91 100/165/91 
f 102/167/92 96/168/92 95/169/92 101/167/92 
f 103/170/93 97/171/93 96/168/93 102/167/93 
f 99/164/94 93/151/94 97/163/94 103/172/94 
f 99/170/95 104/167/95 98/173/95 
f 98/173/95 104/167/95 100/167/95 
f 100/167/95 104/167/95 101/167/95 
f 101/167/95 104/167/95 102/167/95 
f 102/167/95 104/167/95 103/170/95 
f 103/170/95 104/167/95 99/170/95 
# 72 polygons - 48 triangles

